<?xml version="1.0" encoding="UTF-8"?>
<svg id="Layer_2" xmlns="http://www.w3.org/2000/svg" viewBox="0 0 640.38 336.43">
  <defs>
    <style>
      .cls-1 {
        fill: #fff;
      }
    </style>
  </defs>
  <g id="Layer_1-2" data-name="Layer_1">
    <g>
      <g>
        <path class="cls-1" d="M206.47,190h-54.88c-.73-5.63-2.23-10.72-4.5-15.26-2.27-4.54-5.27-8.42-9-11.64-3.73-3.22-8.14-5.69-13.23-7.41-5.09-1.72-10.7-2.58-16.85-2.58-10.9,0-20.29,2.67-28.16,8.01-7.87,5.34-13.9,13.06-18.11,23.16-4.21,10.1-6.31,22.32-6.31,36.66s2.14,27.42,6.42,37.49c4.28,10.06,10.32,17.64,18.11,22.72,7.79,5.09,17.03,7.63,27.72,7.63,6,0,11.47-.77,16.41-2.31,4.94-1.54,9.29-3.79,13.06-6.75,3.77-2.96,6.88-6.59,9.33-10.87,2.45-4.28,4.15-9.13,5.1-14.54l54.88.33c-.95,9.95-3.82,19.76-8.62,29.42-4.79,9.66-11.36,18.46-19.7,26.4-8.34,7.94-18.5,14.25-30.46,18.94-11.96,4.68-25.67,7.02-41.11,7.02-20.34,0-38.55-4.48-54.61-13.45-16.06-8.96-28.74-22.04-38.03-39.24C4.65,266.55,0,245.62,0,220.96s4.72-45.7,14.16-62.9c9.44-17.2,22.21-30.26,38.31-39.19,16.1-8.93,34.14-13.39,54.12-13.39,13.61,0,26.2,1.88,37.76,5.65,11.56,3.77,21.73,9.26,30.52,16.46,8.78,7.21,15.92,16.04,21.4,26.51,5.49,10.47,8.89,22.43,10.21,35.89Z"/>
        <path class="cls-1" d="M237.42,333.36V108.55h156.75v44.13h-102.41v46.1h94.4v44.24h-94.4v46.21h102.41v44.13h-156.75Z"/>
        <path class="cls-1" d="M640.38,220.96c0,24.74-4.76,45.7-14.27,62.9-9.51,17.2-22.38,30.26-38.58,39.19-16.21,8.93-34.38,13.39-54.5,13.39s-38.38-4.5-54.55-13.5c-16.17-9-29-22.08-38.47-39.24-9.48-17.16-14.21-38.07-14.21-62.73s4.74-45.7,14.21-62.9c9.48-17.2,22.3-30.26,38.47-39.19,16.17-8.93,34.36-13.39,54.55-13.39s38.29,4.46,54.5,13.39c16.21,8.93,29.07,21.99,38.58,39.19,9.51,17.2,14.27,38.16,14.27,62.9ZM584.84,220.96c0-14.64-2.07-27-6.2-37.1-4.14-10.1-10.06-17.75-17.78-22.94-7.72-5.2-17-7.79-27.83-7.79s-20.02,2.6-27.77,7.79c-7.76,5.2-13.7,12.84-17.84,22.94-4.14,10.1-6.2,22.47-6.2,37.1s2.07,27,6.2,37.1c4.13,10.1,10.08,17.75,17.84,22.94,7.76,5.2,17.01,7.79,27.77,7.79s20.1-2.6,27.83-7.79c7.72-5.19,13.65-12.84,17.78-22.94,4.13-10.1,6.2-22.46,6.2-37.1Z"/>
      </g>
      <g>
        <path class="cls-1" d="M20.28,10.36V.75h45.27v9.61h-16.88v45.51h-11.52V10.36h-16.88Z"/>
        <path class="cls-1" d="M73.03,55.88V.75h11.65v22.74h23.66V.75h11.63v55.12h-11.63v-22.77h-23.66v22.77h-11.65Z"/>
        <path class="cls-1" d="M129.58,55.88V.75h37.14v9.61h-25.49v13.13h23.58v9.61h-23.58v13.16h25.6v9.61h-37.25Z"/>
        <path class="cls-1" d="M213.12,55.88h-19.54V.75h19.7c5.54,0,10.32,1.1,14.32,3.3,4,2.2,7.08,5.35,9.25,9.46s3.24,9.03,3.24,14.75-1.08,10.68-3.24,14.8c-2.16,4.13-5.26,7.29-9.29,9.5-4.03,2.21-8.84,3.31-14.44,3.31ZM205.24,45.89h7.4c3.44,0,6.35-.61,8.71-1.84,2.36-1.23,4.14-3.14,5.33-5.73,1.19-2.59,1.79-5.94,1.79-10.05s-.6-7.4-1.79-9.99c-1.19-2.58-2.97-4.49-5.32-5.71-2.35-1.22-5.25-1.83-8.69-1.83h-7.43v35.15Z"/>
        <path class="cls-1" d="M260.36.75v55.12h-11.65V.75h11.65Z"/>
        <path class="cls-1" d="M279.47,55.88h-12.49L286.01.75h15.02l19,55.12h-12.49l-13.81-42.53h-.43l-13.83,42.53ZM278.69,34.21h29.5v9.1h-29.5v-9.1Z"/>
        <path class="cls-1" d="M326.65,55.88V.75h21.75c4.16,0,7.72.74,10.67,2.22,2.95,1.48,5.2,3.57,6.76,6.27,1.55,2.7,2.33,5.87,2.33,9.51s-.79,6.81-2.37,9.43-3.86,4.64-6.85,6.04c-2.99,1.4-6.6,2.1-10.83,2.1h-14.56v-9.37h12.68c2.22,0,4.07-.31,5.54-.92,1.47-.61,2.57-1.52,3.3-2.75.73-1.22,1.09-2.74,1.09-4.55s-.36-3.37-1.09-4.63c-.73-1.26-1.83-2.21-3.31-2.87-1.48-.65-3.34-.98-5.58-.98h-7.86v45.59h-11.65ZM356.42,30.79l13.7,25.08h-12.87l-13.4-25.08h12.57Z"/>
        <path class="cls-1" d="M373.16.75h13.05l12.57,23.74h.54l12.57-23.74h13.05l-20.11,35.64v19.49h-11.57v-19.49L373.16.75Z"/>
        <path class="cls-1" d="M499.52,28.31c0,6.01-1.13,11.12-3.4,15.34-2.27,4.22-5.36,7.43-9.26,9.65-3.9,2.22-8.29,3.32-13.15,3.32s-9.29-1.11-13.19-3.34c-3.89-2.22-6.97-5.45-9.23-9.66-2.26-4.22-3.39-9.32-3.39-15.31s1.13-11.12,3.39-15.34c2.26-4.22,5.34-7.43,9.23-9.65,3.89-2.22,8.29-3.32,13.19-3.32s9.25,1.11,13.15,3.32c3.9,2.22,6.99,5.43,9.26,9.65,2.27,4.22,3.4,9.33,3.4,15.34ZM487.71,28.31c0-3.89-.58-7.18-1.74-9.85-1.16-2.67-2.79-4.7-4.89-6.08-2.1-1.38-4.56-2.07-7.37-2.07s-5.28.69-7.38,2.07c-2.1,1.38-3.73,3.41-4.88,6.08-1.16,2.67-1.74,5.96-1.74,9.85s.58,7.18,1.74,9.85c1.16,2.67,2.79,4.7,4.88,6.08,2.1,1.38,4.56,2.07,7.38,2.07s5.28-.69,7.37-2.07c2.1-1.38,3.73-3.41,4.89-6.08,1.16-2.67,1.74-5.96,1.74-9.85Z"/>
        <path class="cls-1" d="M508.13,55.88V.75h36.5v9.61h-24.84v13.13h22.42v9.61h-22.42v22.77h-11.65Z"/>
        <path class="cls-1" d="M579.54,55.88h-12.49L586.08.75h15.02l19,55.12h-12.49l-13.81-42.53h-.43l-13.83,42.53ZM578.76,34.21h29.5v9.1h-29.5v-9.1Z"/>
      </g>
    </g>
  </g>
</svg>